<svg xmlns="http://www.w3.org/2000/svg" width="16" height="17" viewBox="0 0 16 17" fill="none">
<g clipPath="url(#clip0_1_108)">
<path d="M9.61742 15.0731C9.48548 15.106 9.35097 15.1352 9.21745 15.1598C8.86843 15.2247 8.63768 15.5604 8.70223 15.9097C8.73412 16.0816 8.83173 16.2248 8.96425 16.3182C9.10082 16.4143 9.27465 16.4577 9.45178 16.4248C9.61078 16.3953 9.77102 16.3606 9.92827 16.3213C10.2729 16.2356 10.4829 15.8864 10.3969 15.5419C10.3111 15.1971 9.96229 14.9873 9.61742 15.0731Z" fill="#E78C3B"/>
<path d="M14.3742 6.45175C14.4192 6.58753 14.5052 6.69839 14.6139 6.77498C14.775 6.88845 14.9858 6.92662 15.187 6.8601C15.5242 6.74812 15.707 6.38444 15.5954 6.04734C15.5446 5.89367 15.4881 5.73952 15.4281 5.58943C15.2961 5.25959 14.922 5.099 14.592 5.23094C14.2623 5.3628 14.1017 5.73704 14.2337 6.06698C14.2842 6.19314 14.3315 6.32263 14.3742 6.45175Z" fill="#E78C3B"/>
<path d="M11.7056 14.1548C11.5921 14.2297 11.475 14.3022 11.3571 14.3701C11.0493 14.5477 10.9439 14.9411 11.1213 15.2488C11.1695 15.3324 11.2337 15.4008 11.3076 15.4531C11.506 15.5927 11.7755 15.6136 11.9998 15.4844C12.1401 15.4035 12.2796 15.3174 12.4147 15.2281C12.711 15.0323 12.7925 14.6333 12.5967 14.3369C12.4009 14.0404 12.002 13.9589 11.7056 14.1548Z" fill="#E78C3B"/>
<path d="M15.9929 8.24821C15.9789 7.89319 15.6799 7.61687 15.3248 7.63073C14.9701 7.64473 14.6936 7.94385 14.7075 8.29873C14.7129 8.43441 14.7142 8.57213 14.7111 8.70767C14.7061 8.9303 14.815 9.12876 14.9842 9.24803C15.085 9.31902 15.2074 9.36198 15.34 9.36501C15.6951 9.37288 15.9893 9.0913 15.9971 8.73612C16.0007 8.57416 15.9993 8.41006 15.9929 8.24821Z" fill="#E78C3B"/>
<path d="M14.2667 12.4627C13.982 12.2491 13.5793 12.3071 13.3661 12.5913C13.2844 12.7001 13.1984 12.8076 13.1104 12.9111C12.8803 13.1814 12.9128 13.5875 13.1831 13.8177C13.1985 13.8308 13.2141 13.8428 13.2303 13.8541C13.499 14.0436 13.8726 14 14.0899 13.745C14.195 13.6216 14.2975 13.4932 14.3951 13.3632C14.6083 13.079 14.5506 12.676 14.2667 12.4627Z" fill="#E78C3B"/>
<path d="M15.2132 10.1376C14.8743 10.0313 14.5133 10.22 14.4071 10.5589C14.3664 10.6884 14.3214 10.8186 14.2728 10.946C14.166 11.2265 14.2683 11.5351 14.5028 11.7005C14.5459 11.7308 14.5933 11.7564 14.6448 11.7759C14.9766 11.9025 15.3482 11.736 15.4747 11.404C15.5325 11.2525 15.5861 11.0977 15.6345 10.9437C15.7406 10.6047 15.5521 10.2439 15.2132 10.1376Z" fill="#E78C3B"/>
<path d="M6.80993 15.1656C6.23486 15.0623 5.68322 14.8865 5.16012 14.6413C5.15393 14.6381 5.1484 14.6344 5.1419 14.6314C5.01863 14.5734 4.89557 14.5112 4.77629 14.4463C4.77588 14.4458 4.77512 14.4455 4.77447 14.4452C4.55562 14.3247 4.34203 14.1914 4.13454 14.0453C1.10884 11.9139 0.381345 7.7183 2.51287 4.69264C2.97636 4.03496 3.53725 3.48628 4.16257 3.0514C4.17027 3.04604 4.17797 3.0407 4.18561 3.0353C6.38912 1.51702 9.38114 1.4147 11.7209 2.97487L11.2184 3.70096C11.0787 3.90306 11.1646 4.05033 11.4092 4.02832L13.5921 3.8329C13.837 3.81088 13.9834 3.59905 13.9175 3.36256L13.3314 1.25058C13.2657 1.01381 13.0977 0.985468 12.9579 1.18753L12.4542 1.91534C10.7371 0.762699 8.67765 0.323181 6.63352 0.677643C6.42764 0.713275 6.22465 0.756887 6.02444 0.807652C6.02289 0.807927 6.02166 0.808099 6.02042 0.808374C6.01268 0.810266 6.00484 0.812777 5.9973 0.814875C4.23462 1.26753 2.6967 2.2956 1.5993 3.76242C1.59005 3.7734 1.58052 3.78413 1.57178 3.79606C1.53529 3.84521 1.49908 3.89549 1.46362 3.94578C1.40563 4.02819 1.34847 4.11266 1.29378 4.19713C1.28693 4.20731 1.28171 4.21766 1.27572 4.22794C0.370133 5.63125 -0.0666682 7.2536 0.00824147 8.90526C0.00841344 8.9107 0.0081039 8.91616 0.00824147 8.92174C0.0154986 9.08308 0.0282931 9.24665 0.0456619 9.40769C0.0465906 9.41807 0.048895 9.42791 0.050649 9.4383C0.0686026 9.60022 0.0911306 9.76253 0.119368 9.9248C0.40635 11.5804 1.18736 13.0703 2.35768 14.2295C2.3604 14.2322 2.36322 14.2352 2.36597 14.238C2.36693 14.2391 2.368 14.2396 2.36893 14.2406C2.68336 14.5508 3.02537 14.8376 3.39362 15.097C4.35734 15.776 5.43046 16.2249 6.58293 16.4317C6.93261 16.4946 7.26664 16.2618 7.32938 15.9123C7.39208 15.5625 7.15951 15.2282 6.80993 15.1656Z" fill="#E78C3B"/>
<path d="M7.60656 3.3615C7.31892 3.3615 7.08594 3.59469 7.08594 3.88191V9.06667L11.8278 11.518C11.9041 11.5575 11.9859 11.5761 12.0663 11.5761C12.2546 11.5761 12.4365 11.4735 12.529 11.2946C12.6609 11.0392 12.5611 10.7254 12.3057 10.5935L8.12659 8.43293V3.88191C8.12656 3.59469 7.89385 3.3615 7.60656 3.3615Z" fill="#E78C3B"/>
</g>
<defs>
<clipPath id="clip0_1_108">
<rect width="16" height="16" fill="white" transform="translate(0 0.5)"/>
</clipPath>
</defs>
</svg>