<svg xmlns="http://www.w3.org/2000/svg" width="16" height="17" viewBox="0 0 16 17" fill="none">
<g clipPath="url(#clip0_1_122)">
<path d="M10.8125 0.5C9.56763 0.5 8.65506 1.00653 7.7725 1.49641C6.9585 1.94822 6.18962 2.375 5.1875 2.375C4.24019 2.375 3.26147 1.88094 2.84375 1.64216V0.5H1.90625V16.5H2.84375V10.2017C3.43059 10.4851 4.30047 10.8125 5.1875 10.8125C6.43234 10.8125 7.34497 10.306 8.2275 9.81609C9.0415 9.36428 9.81041 8.9375 10.8125 8.9375C12.0553 8.9375 13.3525 9.788 13.365 9.79628L14.0938 10.2821V1.65538C13.1298 1.01925 11.9534 0.5 10.8125 0.5ZM13.1562 8.61072C12.5694 8.32734 11.6995 8 10.8125 8C9.56763 8 8.65506 8.50653 7.7725 8.99641C6.9585 9.44822 6.18962 9.875 5.1875 9.875C4.24003 9.875 3.26112 9.38078 2.84375 9.14219V2.70175C3.43059 2.98513 4.30047 3.3125 5.1875 3.3125C6.43234 3.3125 7.34497 2.80597 8.2275 2.31609C9.0415 1.86428 9.81041 1.4375 10.8125 1.4375C11.7599 1.4375 12.7388 1.93169 13.1562 2.17031V8.61072Z" fill="#E78C3B"/>
</g>
<defs>
<clipPath id="clip0_1_122">
<rect width="16" height="16" fill="white" transform="translate(0 0.5)"/>
</clipPath>
</defs>
</svg>