<svg xmlns="http://www.w3.org/2000/svg" width="14" height="14" viewBox="0 0 14 14" fill="none">
<g clipPath="url(#clip0_1_138)">
<path d="M7.93653 9.86363C7.79341 9.87697 7.64972 9.84468 7.52607 9.77134C7.43573 9.67859 7.39241 9.54983 7.40836 9.42134C7.41169 9.31437 7.42446 9.2079 7.44653 9.10317C7.46788 8.98302 7.49547 8.86408 7.52924 8.7468L7.9047 7.45497C7.94342 7.32747 7.96901 7.19633 7.98107 7.0636C7.98107 6.92043 8.00016 6.82177 8.00016 6.76451C8.00814 6.50932 7.89918 6.26442 7.70424 6.09951C7.46447 5.91544 7.16587 5.82496 6.86424 5.84497C6.64809 5.84823 6.43361 5.88361 6.22787 5.94997C6.00302 6.01997 5.7665 6.10375 5.51833 6.20134L5.41016 6.62134C5.48333 6.59589 5.57244 6.56726 5.67424 6.53543C5.77137 6.50666 5.87205 6.49165 5.97333 6.49089C6.11541 6.47549 6.25841 6.51038 6.37741 6.58951C6.45824 6.68596 6.49617 6.81124 6.48241 6.93634C6.48206 7.04334 6.47033 7.15001 6.44741 7.25451C6.42513 7.36589 6.3965 7.4836 6.3615 7.60769L5.98287 8.90586C5.95236 9.02653 5.92794 9.14864 5.9097 9.27177C5.89482 9.37718 5.88739 9.48349 5.88741 9.58994C5.88586 9.84689 6.00335 10.0901 6.20559 10.2486C6.44905 10.4355 6.75191 10.5282 7.0583 10.5095C7.27404 10.5139 7.48905 10.4827 7.69467 10.4172C7.87498 10.3557 8.11574 10.2677 8.41696 10.1531L8.51879 9.7522C8.43719 9.78605 8.35316 9.8137 8.26741 9.83492C8.15897 9.85969 8.04763 9.86931 7.93653 9.86363Z" fill="#213F61"/>
<path d="M8.33348 3.73863C8.16031 3.5796 7.93216 3.49404 7.69711 3.5C7.4622 3.4947 7.23426 3.58017 7.06074 3.73863C6.74267 4.01289 6.70716 4.49307 6.98144 4.81116C7.00589 4.83952 7.03238 4.86601 7.06074 4.89046C7.4231 5.21456 7.97112 5.21456 8.33345 4.89046C8.65151 4.61349 8.68485 4.13115 8.40788 3.81309C8.38486 3.78659 8.35998 3.76171 8.33348 3.73863Z" fill="#213F61"/>
<path d="M7 0C3.134 0 0 3.134 0 7C0 10.866 3.134 14 7 14C10.866 14 14 10.866 14 7C14 3.134 10.866 0 7 0ZM7 13.3636C3.48545 13.3636 0.636371 10.5145 0.636371 7C0.636371 3.48545 3.48545 0.636371 7 0.636371C10.5145 0.636371 13.3636 3.48545 13.3636 7C13.3636 10.5145 10.5145 13.3636 7 13.3636Z" fill="#213F61"/>
</g>
<defs>
<clipPath id="clip0_1_138">
<rect width="14" height="14" fill="white"/>
</clipPath>
</defs>
</svg>