<svg xmlns="http://www.w3.org/2000/svg" width="16" height="17" viewBox="0 0 16 17" fill="none">
<g clipPath="url(#clip0_1_83)">
<path d="M10.6711 11.0714C12.3737 8.39975 12.1597 8.73306 12.2087 8.66341C12.8286 7.78909 13.1562 6.76006 13.1562 5.6875C13.1562 2.84313 10.8481 0.5 8 0.5C5.16119 0.5 2.84375 2.8385 2.84375 5.6875C2.84375 6.75938 3.17825 7.81534 3.81844 8.70144L5.32881 11.0714C3.71397 11.3196 0.96875 12.0591 0.96875 13.6875C0.96875 14.2811 1.35619 15.127 3.20194 15.7862C4.49075 16.2465 6.19472 16.5 8 16.5C11.3758 16.5 15.0312 15.5478 15.0312 13.6875C15.0312 12.0588 12.2893 11.3201 10.6711 11.0714ZM4.60153 8.18578C4.59637 8.17772 4.591 8.16984 4.58537 8.16209C4.05266 7.42922 3.78125 6.56066 3.78125 5.6875C3.78125 3.34319 5.66894 1.4375 8 1.4375C10.3262 1.4375 12.2188 3.34403 12.2188 5.6875C12.2188 6.56206 11.9525 7.40116 11.4486 8.11472C11.4034 8.17428 11.639 7.80828 8 13.5184L4.60153 8.18578ZM8 15.5625C4.31269 15.5625 1.90625 14.4787 1.90625 13.6875C1.90625 13.1558 3.14275 12.2814 5.88275 11.9406L7.60469 14.6426C7.69075 14.7776 7.83981 14.8594 7.99997 14.8594C8.16012 14.8594 8.30922 14.7776 8.39525 14.6426L10.1172 11.9406C12.8572 12.2814 14.0938 13.1558 14.0938 13.6875C14.0938 14.4719 11.709 15.5625 8 15.5625Z" fill="#E78C3B"/>
<path d="M8 3.34375C6.70766 3.34375 5.65625 4.39516 5.65625 5.6875C5.65625 6.97984 6.70766 8.03125 8 8.03125C9.29234 8.03125 10.3438 6.97984 10.3438 5.6875C10.3438 4.39516 9.29234 3.34375 8 3.34375ZM8 7.09375C7.22459 7.09375 6.59375 6.46291 6.59375 5.6875C6.59375 4.91209 7.22459 4.28125 8 4.28125C8.77541 4.28125 9.40625 4.91209 9.40625 5.6875C9.40625 6.46291 8.77541 7.09375 8 7.09375Z" fill="#E78C3B"/>
</g>
<defs>
<clipPath id="clip0_1_83">
<rect width="16" height="16" fill="white" transform="translate(0 0.5)"/>
</clipPath>
</defs>
</svg>