<svg xmlns="http://www.w3.org/2000/svg" width="15" height="15" viewBox="0 0 15 15" fill="none">
<g clipPath="url(#clip0_1_73)">
<path d="M14.3878 7.70784C14.5642 7.35852 14.5642 6.94146 14.3878 6.59214L14.2052 6.2304C14.1654 6.15155 14.1515 6.06374 14.1649 5.97641L14.2268 5.57596C14.2866 5.18926 14.1577 4.79259 13.8821 4.51488L13.5966 4.22729C13.5344 4.16458 13.494 4.08535 13.4799 3.99813L13.415 3.59814C13.353 3.21618 13.1126 2.88197 12.7708 2.70158L12.4196 2.49445C12.4128 2.49045 12.4059 2.48664 12.3988 2.48304C12.3203 2.44266 12.2574 2.37979 12.217 2.30121L12.0317 1.94086C11.857 1.60105 11.5007 1.34975 11.1019 1.28506L10.7019 1.2202C10.6147 1.20604 10.5355 1.16569 10.4728 1.10347L10.1852 0.817974C9.90746 0.542309 9.51088 0.413517 9.12412 0.473203L8.72367 0.535094C8.63629 0.548599 8.5485 0.534685 8.46965 0.494877L8.10791 0.312253C7.75862 0.135919 7.34156 0.135892 6.99227 0.312253L6.63051 0.494877C6.55168 0.534658 6.46389 0.548545 6.37652 0.535121L5.97606 0.47323C5.58928 0.413408 5.19269 0.542336 4.91498 0.818001L4.62737 1.10344C4.56469 1.16569 4.48545 1.20604 4.39824 1.2202L3.99822 1.28506C3.59942 1.34975 3.24314 1.60102 3.06841 1.94086L2.88312 2.30121C2.84271 2.37976 2.77984 2.44266 2.70126 2.48304L2.34088 2.66836C2.00107 2.84309 1.74977 3.19938 1.6851 3.59817L1.62022 3.99819C1.60609 4.0854 1.56571 4.16461 1.50346 4.22732L1.21805 4.51491C0.942384 4.79261 0.813511 5.18926 0.873278 5.57596L0.935196 5.97644C0.948702 6.06374 0.934788 6.15155 0.894952 6.2304L0.712328 6.59214C0.535995 6.94143 0.535995 7.35849 0.712328 7.70781L0.894952 8.06955C0.93476 8.1484 0.948674 8.23621 0.935196 8.32354L0.873278 8.72402C0.813511 9.11072 0.942412 9.50736 1.21805 9.78507L1.50352 10.0727C1.56576 10.1354 1.60614 10.2146 1.62027 10.3018L1.68516 10.7018C1.74983 11.1006 2.00112 11.4569 2.34094 11.6316L2.70128 11.8169C2.77987 11.8573 2.84274 11.9202 2.88314 11.9988L3.06844 12.3592C3.24319 12.699 3.59948 12.9503 3.99827 13.0149L4.39826 13.0798C4.48548 13.094 4.56471 13.1343 4.62739 13.1966L4.91501 13.4821C5.19277 13.7577 5.58939 13.8865 5.97606 13.8268L6.37654 13.7649C6.46381 13.7514 6.55168 13.7653 6.63051 13.8051L6.99227 13.9878C7.16691 14.0759 7.3585 14.12 7.55008 14.12C7.74169 14.12 7.93327 14.0759 8.10791 13.9878L8.46965 13.8051C8.5485 13.7653 8.63637 13.7514 8.72364 13.7649L9.12409 13.8268C9.5108 13.8865 9.90744 13.7577 10.1852 13.482L10.4728 13.1965C10.5354 13.1343 10.6147 13.0939 10.7019 13.0798L11.1019 13.0149C11.4838 12.9529 11.8181 12.7125 11.9985 12.3707L12.2056 12.0195C12.2096 12.0127 12.2134 12.0058 12.217 11.9987C12.2574 11.9202 12.3203 11.8573 12.3988 11.8169L12.7592 11.6316C13.1072 11.4527 13.3523 11.1153 13.415 10.729L13.4799 10.329C13.494 10.2418 13.5344 10.1626 13.5966 10.0999C13.6009 10.0955 13.8892 9.77783 13.8892 9.77783C14.1599 9.50047 14.2861 9.10734 14.2268 8.72402L14.1649 8.32356C14.1514 8.23624 14.1653 8.1484 14.2051 8.06955L14.3878 7.70784Z" fill="url(#paint0_linear_1_73)"/>
<path d="M7.55146 2.22159C4.84571 2.22159 2.62305 4.44485 2.62305 7.15C2.62305 9.85575 4.84631 12.0784 7.55146 12.0784C10.2572 12.0784 12.4799 9.85515 12.4799 7.15C12.4799 4.44425 10.2566 2.22159 7.55146 2.22159ZM10.3983 6.02376L9.58142 9.29122C9.53597 9.47302 9.3726 9.60059 9.18519 9.60059H5.91773C5.73032 9.60059 5.56694 9.47302 5.5215 9.29122L4.70463 6.02376C4.65652 5.83128 4.7537 5.63205 4.93502 5.55145C5.11631 5.47088 5.32932 5.53228 5.43995 5.69699C5.55172 5.86129 5.95604 6.33314 6.32616 6.33314C6.3938 6.33314 6.60335 6.1757 6.81922 5.68901C7.0129 5.2524 7.14303 4.69059 7.14303 4.29098C7.14303 4.06541 7.3259 3.88254 7.55146 3.88254C7.77702 3.88254 7.95989 4.06541 7.95989 4.29098C7.95989 4.69059 8.09002 5.2524 8.2837 5.68901C8.49959 6.1757 8.70912 6.33314 8.77675 6.33314C9.15788 6.33314 9.57273 5.83136 9.66297 5.69699C9.7736 5.53231 9.98664 5.47091 10.1679 5.55145C10.3492 5.63205 10.4464 5.83128 10.3983 6.02376Z" fill="url(#paint1_linear_1_73)"/>
</g>
<defs>
<linearGradient id="paint0_linear_1_73" x1="7.55008" y1="14.12" x2="7.55008" y2="0.180003" gradientUnits="userSpaceOnUse">
<stop stop-color="#FD5900"/>
<stop offset="1" stop-color="#FFDE00"/>
</linearGradient>
<linearGradient id="paint1_linear_1_73" x1="7.55146" y1="12.0784" x2="7.55146" y2="2.22159" gradientUnits="userSpaceOnUse">
<stop stop-color="#FFE59A"/>
<stop offset="1" stop-color="#FFFFD5"/>
</linearGradient>
<clipPath id="clip0_1_73">
<rect width="13.94" height="13.94" fill="white" transform="translate(0.580078 0.18)"/>
</clipPath>
</defs>
</svg>