<svg xmlns="http://www.w3.org/2000/svg" width="16" height="17" viewBox="0 0 16 17" fill="none">
<g clipPath="url(#clip0_1_92)">
<mask id="mask0_1_92" style="mask-type:luminance" maskUnits="userSpaceOnUse" x="0" y="0" width="16" height="17">
<path d="M0 0.500001H16V16.5H0V0.500001Z" fill="white"/>
</mask>
<g mask="url(#mask0_1_92)">
<path fill-rule="evenodd" clip-rule="evenodd" d="M0 8.49997C0 12.9183 3.58165 16.5 8 16.5C12.4183 16.5 16 12.9183 16 8.49997C16 4.08161 12.4183 0.49997 8 0.49997C3.58165 0.49997 0 4.08162 0 8.49997ZM8 15.5625C4.09942 15.5625 0.9375 12.4005 0.9375 8.49997C0.9375 4.59939 4.09941 1.43747 8 1.43747C11.9005 1.43747 15.0625 4.59939 15.0625 8.49997C15.0625 12.4005 11.9005 15.5625 8 15.5625Z" fill="#E78C3B"/>
<path fill-rule="evenodd" clip-rule="evenodd" d="M4.51953 7.49582C4.51953 9.41844 6.07805 10.9771 8.00081 10.9771C9.92351 10.9771 11.4821 9.41844 11.4821 7.49582C11.4821 5.57322 9.92351 4.0146 8.00081 4.0146C6.07805 4.0146 4.51953 5.57322 4.51953 7.49582ZM8.00081 10.0396C6.59583 10.0396 5.45703 8.90069 5.45703 7.49582C5.45703 6.09098 6.59582 4.9521 8.00081 4.9521C9.40574 4.9521 10.5446 6.09098 10.5446 7.49582C10.5446 8.90069 9.40574 10.0396 8.00081 10.0396Z" fill="#E78C3B"/>
<path fill-rule="evenodd" clip-rule="evenodd" d="M12.544 15.0107C12.8014 14.9834 12.9879 14.7525 12.9606 14.4951C12.6947 11.9905 10.5762 10.0396 8.00119 10.0396C5.42626 10.0396 3.3077 11.9904 3.04172 14.495C3.01438 14.7525 3.20091 14.9833 3.45835 15.0107C3.71579 15.038 3.94664 14.8515 3.97398 14.594C4.18987 12.561 5.91082 10.9771 8.00119 10.9771C10.0916 10.9771 11.8125 12.5612 12.0283 14.5941C12.0557 14.8515 12.2865 15.0381 12.544 15.0107Z" fill="#E78C3B"/>
</g>
</g>
<defs>
<clipPath id="clip0_1_92">
<rect width="16" height="16" fill="white" transform="translate(0 0.5)"/>
</clipPath>
</defs>
</svg>