<svg xmlns="http://www.w3.org/2000/svg" width="36" height="36" viewBox="0 0 36 36" fill="none">
<g clipPath="url(#clip0_1_147)">
<path d="M26.9734 29.1115C27.5012 30.7432 25.6285 32.0942 24.2466 31.0785L18.7133 27.0117C18.0909 26.5543 17.2435 26.5543 16.6211 27.0117L11.0877 31.0785C9.70585 32.0942 7.83312 30.7432 8.36094 29.1116L10.5026 22.4908C10.7374 21.7651 10.4799 20.9708 9.86408 20.5209L4.27988 16.4407C2.9002 15.4326 3.61326 13.248 5.32199 13.248H12.1852C12.9528 13.248 13.6325 12.7522 13.8671 12.0213L15.9852 5.42074C16.5101 3.78518 18.8242 3.78519 19.3491 5.42074L21.4673 12.0213C21.7018 12.7522 22.3816 13.248 23.1492 13.248H30.0115C31.7201 13.248 32.4332 15.4324 31.0537 16.4406L25.4701 20.5209C24.8544 20.9708 24.597 21.7651 24.8317 22.4907L26.9734 29.1115Z" fill="#E78C3B"/>
</g>
<defs>
<clipPath id="clip0_1_147">
<rect width="35.3281" height="35.3281" fill="white"/>
</clipPath>
</defs>
</svg>