<svg xmlns="http://www.w3.org/2000/svg" width="24" height="25" viewBox="0 0 24 25" fill="none">
<path d="M21.0961 7.37749C21.5987 6.32811 21.5274 5.05683 20.6649 4.19427L20.3058 3.83518C19.4432 2.97262 18.1377 2.83539 17.1226 3.4039C16.4081 3.80403 14.8961 2.97205 14.7841 2.43315C14.5491 1.30141 13.4569 0.5 12.245 0.5L11.628 0.531344C10.209 0.60344 9.09552 1.77498 9.09552 3.19578C9.144 3.812 8.088 4.268 7.47461 3.8671C6.42187 2.81437 4.71504 2.81437 3.6623 3.8671L3.36706 4.16235C2.46432 5.06514 2.35944 6.43462 2.98138 7.4888C3.408 8.21197 2.99198 9.49198 2.29109 9.6643C1.01573 9.97789 0 10.916 0 12.2983V12.7446C0 13.9688 0.891744 14.8821 2.00102 15.2756C3.15197 15.6839 3.0612 17.3722 2.94322 17.5746C2.34125 18.6067 2.48251 19.9531 3.3671 20.8376L3.66235 21.1329C4.54248 22.013 5.85696 22.1156 6.90994 21.5658C7.66402 21.172 9.07205 21.908 9.18883 22.5097C9.41515 23.6758 10.5466 24.5 11.7913 24.5H12.1754C13.3957 24.5 14.4289 23.6992 14.7781 22.5944C15.0065 21.8719 16.1121 21.14 17.2118 21.6027C18.2581 22.0428 19.5468 21.9237 20.3644 21.1062L20.6329 20.8376C21.6857 19.7849 21.6857 18.0781 20.6329 17.0254C20.16 16.596 20.7681 15.412 21.3043 15.4045C22.7931 15.4045 24 14.1975 24 12.7087V12.2472C24 11.0075 23.1771 9.90176 22.0189 9.64722C21.24 9.476 20.844 7.904 21.0961 7.37749Z" fill="#E78C3B"/>
<path d="M9.90159 16.1638L6.77338 13.0356C6.39846 12.6607 6.39846 12.0529 6.77338 11.678C7.14831 11.3031 7.75614 11.3031 8.13102 11.678L10.5804 14.1274L15.8716 8.83616C16.2466 8.46123 16.8544 8.46123 17.2293 8.83616C17.6042 9.21109 17.6042 9.81891 17.2293 10.1938L11.2593 16.1638C10.8653 16.5 10.1614 16.452 9.90159 16.1638Z" fill="white"/>
</svg>