<svg width="20" height="20" viewBox="0 0 20 20" fill="none" xmlns="http://www.w3.org/2000/svg">
<g id="checkbox 1" clip-path="url(#clip0_112_619)">
<path id="Vector" d="M15.8333 0H4.16667C3.062 0.00132321 2.00296 0.440735 1.22185 1.22185C0.440735 2.00296 0.00132321 3.062 0 4.16667L0 15.8333C0.00132321 16.938 0.440735 17.997 1.22185 18.7782C2.00296 19.5593 3.062 19.9987 4.16667 20H15.8333C16.938 19.9987 17.997 19.5593 18.7782 18.7782C19.5593 17.997 19.9987 16.938 20 15.8333V4.16667C19.9987 3.062 19.5593 2.00296 18.7782 1.22185C17.997 0.440735 16.938 0.00132321 15.8333 0ZM18.3333 15.8333C18.3333 16.4964 18.0699 17.1323 17.6011 17.6011C17.1323 18.0699 16.4964 18.3333 15.8333 18.3333H4.16667C3.50363 18.3333 2.86774 18.0699 2.3989 17.6011C1.93006 17.1323 1.66667 16.4964 1.66667 15.8333V4.16667C1.66667 3.50363 1.93006 2.86774 2.3989 2.3989C2.86774 1.93006 3.50363 1.66667 4.16667 1.66667H15.8333C16.4964 1.66667 17.1323 1.93006 17.6011 2.3989C18.0699 2.86774 18.3333 3.50363 18.3333 4.16667V15.8333Z" fill="#E78C3B"/>
<path id="Vector_2" d="M7.77702 13.2658L4.51119 9.99992C4.35492 9.8437 4.14299 9.75593 3.92202 9.75593C3.70105 9.75593 3.48913 9.8437 3.33286 9.99992C3.17663 10.1562 3.08887 10.3681 3.08887 10.5891C3.08887 10.8101 3.17663 11.022 3.33286 11.1783L6.59869 14.4441C6.75346 14.5989 6.93722 14.7218 7.13948 14.8056C7.34173 14.8894 7.55851 14.9325 7.77744 14.9325C7.99637 14.9325 8.21315 14.8894 8.4154 14.8056C8.61765 14.7218 8.80142 14.5989 8.95619 14.4441L16.6662 6.73409C16.8224 6.57782 16.9102 6.36589 16.9102 6.14492C16.9102 5.92395 16.8224 5.71203 16.6662 5.55576C16.5099 5.39953 16.298 5.31177 16.077 5.31177C15.8561 5.31177 15.6441 5.39953 15.4879 5.55576L7.77702 13.2658Z" fill="#E78C3B"/>
</g>
<defs>
<clipPath id="clip0_112_619">
<rect width="20" height="20" fill="white"/>
</clipPath>
</defs>
</svg>
