<svg width="37" height="36" viewBox="0 0 37 36" fill="none" xmlns="http://www.w3.org/2000/svg">
<rect x="0.333008" width="36" height="36" rx="18" fill="#E78C3B"/>
<rect x="0.833008" y="0.5" width="35" height="35" rx="17.5" stroke="#E78C3B" stroke-opacity="0.16"/>
<g clip-path="url(#clip0_176_1316)">
<path d="M22.2073 15.522C21.9912 14.6582 21.4927 13.8913 20.791 13.3432C20.0892 12.795 19.2245 12.497 18.3341 12.4965C17.4436 12.496 16.5785 12.793 15.8762 13.3403C15.1738 13.8876 14.6744 14.6539 14.4573 15.5175C13.4332 15.6136 12.4855 16.1005 11.8111 16.8771C11.1366 17.6537 10.7872 18.6602 10.8355 19.6877C10.8837 20.7151 11.3259 21.6845 12.0702 22.3944C12.8145 23.1044 13.8037 23.5003 14.8323 23.5H16.3323C16.4649 23.5 16.5921 23.4473 16.6859 23.3535C16.7796 23.2598 16.8323 23.1326 16.8323 23C16.8323 22.8674 16.7796 22.7402 16.6859 22.6464C16.5921 22.5527 16.4649 22.5 16.3323 22.5H14.8323C14.4383 22.5011 14.048 22.4247 13.6836 22.275C13.3192 22.1253 12.9878 21.9052 12.7084 21.6275C12.1442 21.0665 11.8259 20.3044 11.8236 19.5087C11.8212 18.7131 12.1351 17.9491 12.696 17.3848C13.257 16.8206 14.0192 16.5023 14.8148 16.5C14.9431 16.5096 15.0704 16.4713 15.172 16.3924C15.2737 16.3135 15.3424 16.1997 15.3648 16.073C15.4666 15.359 15.8226 14.7057 16.3674 14.2331C16.9121 13.7605 17.6091 13.5004 18.3303 13.5004C19.0515 13.5004 19.7485 13.7605 20.2932 14.2331C20.838 14.7057 21.194 15.359 21.2958 16.073C21.322 16.1953 21.3897 16.3047 21.4876 16.3826C21.5854 16.4604 21.7073 16.5019 21.8323 16.5C22.628 16.5 23.391 16.816 23.9536 17.3787C24.5162 17.9413 24.8323 18.7043 24.8323 19.5C24.8323 20.2956 24.5162 21.0587 23.9536 21.6213C23.391 22.1839 22.628 22.5 21.8323 22.5H20.3323C20.1997 22.5 20.0725 22.5527 19.9788 22.6464C19.885 22.7402 19.8323 22.8674 19.8323 23C19.8323 23.1326 19.885 23.2598 19.9788 23.3535C20.0725 23.4473 20.1997 23.5 20.3323 23.5H21.8323C22.8534 23.4893 23.8317 23.0885 24.5668 22.3798C25.3019 21.671 25.7381 20.708 25.786 19.688C25.834 18.668 25.49 17.6683 24.8246 16.8937C24.1593 16.1192 23.2229 15.6284 22.2073 15.522Z" fill="white"/>
<path d="M20.4792 19.8535C20.5735 19.9446 20.6998 19.995 20.8309 19.9939C20.962 19.9927 21.0874 19.9401 21.1801 19.8474C21.2728 19.7547 21.3254 19.6293 21.3266 19.4982C21.3277 19.3671 21.2773 19.2408 21.1862 19.1465L18.6862 16.6465C18.5925 16.5528 18.4653 16.5001 18.3327 16.5001C18.2001 16.5001 18.073 16.5528 17.9792 16.6465L15.4792 19.1465C15.3881 19.2408 15.3377 19.3671 15.3389 19.4982C15.34 19.6293 15.3926 19.7547 15.4853 19.8474C15.578 19.9401 15.7034 19.9927 15.8345 19.9939C15.9656 19.995 16.0919 19.9446 16.1862 19.8535L17.8327 18.207V24.5C17.8327 24.6326 17.8854 24.7598 17.9792 24.8536C18.0729 24.9473 18.2001 25 18.3327 25C18.4653 25 18.5925 24.9473 18.6863 24.8536C18.78 24.7598 18.8327 24.6326 18.8327 24.5V18.207L20.4792 19.8535Z" fill="white"/>
</g>
<defs>
<clipPath id="clip0_176_1316">
<rect width="16" height="16" fill="white" transform="translate(10.333 10)"/>
</clipPath>
</defs>
</svg>
