<svg width="55" height="55" viewBox="0 0 55 55" fill="none" xmlns="http://www.w3.org/2000/svg">
<path fillRule="evenodd" clipRule="evenodd" d="M0 1.90115C0 0.851184 0.851184 0 1.90115 0H52.5986C53.6485 0 54.4997 0.851184 54.4997 1.90115C54.4997 2.95112 53.6485 3.80231 52.5986 3.80231H50.0637V21.1662C50.0637 26.8448 50.0637 29.6841 48.9585 31.8532C47.9864 33.7609 46.4353 35.312 44.5275 36.2841C42.3585 37.3894 39.5192 37.3894 33.8405 37.3894H29.151V43.9177L40.9024 50.9684C41.8028 51.5086 42.0946 52.6764 41.5544 53.5768C41.0142 54.4772 39.8464 54.7689 38.946 54.2288L29.151 48.3517V52.5986C29.151 53.6485 28.2998 54.4997 27.2499 54.4997C26.1999 54.4997 25.3487 53.6485 25.3487 52.5986V48.3517L15.5536 54.2288C14.6533 54.7689 13.4855 54.4772 12.9453 53.5768C12.4051 52.6764 12.697 51.5086 13.5974 50.9684L25.3487 43.9177V37.3894H20.6592C14.9806 37.3894 12.1412 37.3894 9.97228 36.2841C8.06441 35.312 6.51328 33.7609 5.54115 31.8532C4.43602 29.6841 4.43602 26.8448 4.43602 21.1662V3.80231H1.90115C0.851184 3.80231 0 2.95112 0 1.90115ZM38.4436 18.6923C39.3171 18.1099 39.5534 16.9295 38.9709 16.0559C38.3886 15.1822 37.2081 14.9461 36.3346 15.5285L30.0263 19.7337L26.0587 15.7661C25.4179 15.1252 24.4139 15.0258 23.66 15.5285L16.0552 20.5982C15.1816 21.1806 14.9455 22.3611 15.5279 23.2346C16.1103 24.1084 17.2907 24.3444 18.1643 23.7619L24.4722 19.5568L28.4397 23.5244C29.0806 24.1652 30.0846 24.2645 30.8387 23.7619L38.4436 18.6923Z" fill="white"/>
</svg>
