<svg width="21" height="20" viewBox="0 0 21 20" fill="none" xmlns="http://www.w3.org/2000/svg">
<g clip-path="url(#clip0_77_1282)">
<path d="M15.935 16.4806C16.2338 17.4043 15.1736 18.1691 14.3913 17.5942L11.2587 15.2918C10.9064 15.0329 10.4266 15.0329 10.0743 15.2918L6.94173 17.5942C6.15943 18.1691 5.09924 17.4043 5.39805 16.4806L6.61051 12.7324C6.74339 12.3216 6.59762 11.8719 6.24901 11.6172L3.08767 9.30732C2.3066 8.73662 2.71028 7.4999 3.67763 7.4999H7.56302C7.99759 7.4999 8.38241 7.21924 8.5152 6.80545L9.71434 3.06871C10.0115 2.14278 11.3216 2.14278 11.6187 3.06871L12.8178 6.80545C12.9506 7.21924 13.3354 7.4999 13.77 7.4999H17.6549C18.6222 7.4999 19.0259 8.73655 18.2449 9.30729L15.084 11.6172C14.7354 11.8719 14.5896 12.3216 14.7225 12.7324L15.935 16.4806Z" fill="#E78C3B"/>
</g>
<defs>
<clipPath id="clip0_77_1282">
<rect width="20" height="20" fill="white" transform="translate(0.666504)"/>
</clipPath>
</defs>
</svg>
