<svg width="59" height="52" viewBox="0 0 59 52" fill="none" xmlns="http://www.w3.org/2000/svg">
<path d="M28.9676 47.6652C28.9676 48.958 28.5184 50.1459 27.7723 51.0887H48.2628C48.6469 51.0887 49.0006 50.8795 49.1857 50.5429L58.4553 33.6889C58.8415 32.9869 58.3336 32.1279 57.5324 32.1279H30.6213L24.6147 42.2641C27.1001 42.8056 28.9676 45.0202 28.9676 47.6652Z" fill="white"/>
<path d="M54.7754 0H37.9214C37.0487 0 36.3413 0.707424 36.3413 1.58006V18.4341C36.3413 19.3067 37.0487 20.0141 37.9214 20.0141H54.7754C55.648 20.0141 56.3554 19.3067 56.3554 18.4341V1.58006C56.3554 0.707424 55.648 0 54.7754 0ZM53.0533 5.79458L47.2598 15.8016C47.0715 16.127 46.7243 16.3273 46.3484 16.3273C45.9724 16.3273 45.6252 16.127 45.437 15.8016L39.6434 5.79458C39.3518 5.2913 39.5236 4.64682 40.0271 4.35519C40.5306 4.06329 41.1751 4.23561 41.4662 4.73915L46.3484 13.1716L51.2305 4.73915C51.5211 4.23561 52.1661 4.06331 52.6697 4.35519C53.1732 4.64684 53.345 5.2913 53.0533 5.79458Z" fill="white"/>
<path d="M14.22 23.1743C18.8741 23.1743 22.647 19.4014 22.647 14.7473C22.647 10.0932 18.8741 6.32031 14.22 6.32031C9.56586 6.32031 5.79297 10.0932 5.79297 14.7473C5.79297 19.4014 9.56586 23.1743 14.22 23.1743Z" fill="white"/>
<path d="M2.63344 51.0886H23.4376C25.3252 51.0886 26.8611 49.5528 26.8611 47.6652C26.8611 45.7775 25.3252 44.2417 23.4376 44.2417H7.37362C6.79189 44.2417 6.32025 43.7701 6.32025 43.1883C6.32025 42.6066 6.79189 42.135 7.37362 42.135H22.2425L28.3084 31.8985V27.8719C28.3084 27.6122 28.2678 27.3856 28.1875 27.1984C27.6891 26.0337 26.5483 25.2809 25.281 25.2809H4.2135C1.89022 25.2809 0 27.1712 0 29.4944V48.4552C0 49.9072 1.18144 51.0886 2.63344 51.0886Z" fill="white"/>
</svg>
