<svg width="61" height="61" viewBox="0 0 61 61" fill="none" xmlns="http://www.w3.org/2000/svg">
<path d="M48.2917 2.54167H12.7084C12.0994 2.54868 11.5131 2.77417 11.0563 3.17709C12.8689 3.8148 14.4636 4.9531 15.6557 6.46007C16.8478 7.96705 17.5884 9.78099 17.7917 11.6917C17.8306 12.0294 17.8306 12.3706 17.7917 12.7083V55.9167C17.7905 56.4028 17.9288 56.8791 18.1901 57.289C18.4514 57.699 18.8247 58.0254 19.2659 58.2296C19.7081 58.4332 20.1995 58.5055 20.6816 58.4379C21.1637 58.3703 21.6163 58.1657 21.9855 57.8483L29.2292 51.6467L36.473 57.8483C36.9334 58.2421 37.5193 58.4585 38.1251 58.4585C38.7309 58.4585 39.3168 58.2421 39.7772 57.8483L47.0209 51.6467L54.2647 57.8483C54.7251 58.2421 55.311 58.4584 55.9167 58.4583C56.2845 58.4557 56.6478 58.3779 56.9842 58.2296C57.4254 58.0254 57.7988 57.699 58.0601 57.289C58.3214 56.8791 58.4596 56.4028 58.4584 55.9167V12.7083C58.4584 10.012 57.3873 7.42604 55.4807 5.51942C53.574 3.6128 50.9881 2.54167 48.2917 2.54167ZM45.7501 38.125H30.5001C29.826 38.125 29.1795 37.8572 28.7029 37.3806C28.2262 36.9039 27.9584 36.2574 27.9584 35.5833C27.9584 34.9092 28.2262 34.2628 28.7029 33.7861C29.1795 33.3095 29.826 33.0417 30.5001 33.0417H45.7501C46.4242 33.0417 47.0707 33.3095 47.5473 33.7861C48.024 34.2628 48.2917 34.9092 48.2917 35.5833C48.2917 36.2574 48.024 36.9039 47.5473 37.3806C47.0707 37.8572 46.4242 38.125 45.7501 38.125ZM45.7501 27.9583H30.5001C29.826 27.9583 29.1795 27.6906 28.7029 27.2139C28.2262 26.7372 27.9584 26.0908 27.9584 25.4167C27.9584 24.7426 28.2262 24.0961 28.7029 23.6194C29.1795 23.1428 29.826 22.875 30.5001 22.875H45.7501C46.4242 22.875 47.0707 23.1428 47.5473 23.6194C48.024 24.0961 48.2917 24.7426 48.2917 25.4167C48.2917 26.0908 48.024 26.7372 47.5473 27.2139C47.0707 27.6906 46.4242 27.9583 45.7501 27.9583ZM45.7501 17.7917H30.5001C29.826 17.7917 29.1795 17.5239 28.7029 17.0472C28.2262 16.5706 27.9584 15.9241 27.9584 15.25C27.9584 14.5759 28.2262 13.9294 28.7029 13.4528C29.1795 12.9761 29.826 12.7083 30.5001 12.7083H45.7501C46.4242 12.7083 47.0707 12.9761 47.5473 13.4528C48.024 13.9294 48.2917 14.5759 48.2917 15.25C48.2917 15.9241 48.024 16.5706 47.5473 17.0472C47.0707 17.5239 46.4242 17.7917 45.7501 17.7917ZM12.7084 12.7083V33.0417H5.08341C4.40932 33.0417 3.76284 32.7739 3.28618 32.2972C2.80953 31.8206 2.54175 31.1741 2.54175 30.5V12.7083C2.54175 12.3525 2.54175 12.0221 2.54175 11.6917C2.67657 10.3435 3.34143 9.10408 4.39007 8.2461C5.43871 7.38812 6.78523 6.98185 8.13342 7.11667C9.4816 7.25149 10.721 7.91635 11.579 8.96499C12.437 10.0136 12.8432 11.3602 12.7084 12.7083Z" fill="#E78C3B"/>
</svg>
