<svg width="25" height="24" viewBox="0 0 25 24" fill="none" xmlns="http://www.w3.org/2000/svg">
<g clip-path="url(#clip0_349_144)">
<path d="M21.2273 0H3.77273C2.90475 0 2.07232 0.344804 1.45856 0.95856C0.844804 1.57232 0.5 2.40475 0.5 3.27273L0.5 20.7273C0.5 21.5953 0.844804 22.4277 1.45856 23.0414C2.07232 23.6552 2.90475 24 3.77273 24H21.2273C22.0953 24 22.9277 23.6552 23.5414 23.0414C24.1552 22.4277 24.5 21.5953 24.5 20.7273V3.27273C24.5 2.40475 24.1552 1.57232 23.5414 0.95856C22.9277 0.344804 22.0953 0 21.2273 0ZM8.68182 18.9927C8.682 19.0593 8.66904 19.1252 8.6437 19.1867C8.61836 19.2483 8.58112 19.3042 8.53412 19.3513C8.48713 19.3985 8.4313 19.4359 8.36983 19.4614C8.30836 19.4869 8.24246 19.5 8.17591 19.5H6.02C5.95333 19.5002 5.88729 19.4872 5.82566 19.4618C5.76404 19.4363 5.70804 19.399 5.6609 19.3518C5.61376 19.3047 5.5764 19.2487 5.55097 19.1871C5.52555 19.1254 5.51255 19.0594 5.51273 18.9927V9.95455C5.51273 9.82001 5.56617 9.69098 5.6613 9.59585C5.75644 9.50072 5.88546 9.44727 6.02 9.44727H8.17591C8.31021 9.44763 8.43889 9.50124 8.53372 9.59633C8.62856 9.69142 8.68182 9.82024 8.68182 9.95455V18.9927ZM7.09727 8.59091C6.69272 8.59091 6.29725 8.47095 5.96088 8.24619C5.62451 8.02143 5.36234 7.70197 5.20752 7.32822C5.0527 6.95446 5.0122 6.54319 5.09112 6.14641C5.17005 5.74963 5.36486 5.38516 5.65092 5.0991C5.93698 4.81304 6.30145 4.61823 6.69822 4.5393C7.095 4.46038 7.50628 4.50089 7.88003 4.6557C8.25379 4.81052 8.57325 5.07269 8.79801 5.40906C9.02276 5.74543 9.14273 6.1409 9.14273 6.54545C9.14273 7.08794 8.92723 7.60821 8.54363 7.99181C8.16003 8.37541 7.63976 8.59091 7.09727 8.59091ZM19.9509 19.0282C19.9511 19.0895 19.9391 19.1502 19.9158 19.2069C19.8924 19.2635 19.8581 19.315 19.8147 19.3584C19.7714 19.4017 19.7199 19.436 19.6632 19.4594C19.6066 19.4828 19.5458 19.4947 19.4845 19.4945H17.1664C17.1051 19.4947 17.0443 19.4828 16.9877 19.4594C16.931 19.436 16.8795 19.4017 16.8362 19.3584C16.7929 19.315 16.7585 19.2635 16.7351 19.2069C16.7118 19.1502 16.6998 19.0895 16.7 19.0282V14.7941C16.7 14.1614 16.8855 12.0232 15.0459 12.0232C13.6209 12.0232 13.3305 13.4864 13.2732 14.1436V19.0336C13.2732 19.1562 13.225 19.2738 13.139 19.361C13.053 19.4483 12.9361 19.4982 12.8136 19.5H10.5745C10.5134 19.5 10.4528 19.4879 10.3963 19.4645C10.3398 19.441 10.2885 19.4066 10.2453 19.3633C10.2021 19.32 10.1678 19.2686 10.1445 19.212C10.1213 19.1554 10.1094 19.0948 10.1095 19.0336V9.915C10.1094 9.85382 10.1213 9.79321 10.1445 9.73663C10.1678 9.68006 10.2021 9.62864 10.2453 9.58531C10.2885 9.54199 10.3398 9.50762 10.3963 9.48416C10.4528 9.46071 10.5134 9.44864 10.5745 9.44864H12.8136C12.9373 9.44864 13.0559 9.49777 13.1434 9.58523C13.2309 9.67269 13.28 9.79131 13.28 9.915V10.7032C13.8091 9.90818 14.5932 9.29727 16.2664 9.29727C19.9727 9.29727 19.9482 12.7582 19.9482 14.6591L19.9509 19.0282Z" fill="#A6B2C0"/>
</g>
<defs>
<clipPath id="clip0_349_144">
<rect width="24" height="24" fill="white" transform="translate(0.5)"/>
</clipPath>
</defs>
</svg>
