<svg width="50" height="50" viewBox="0 0 50 50" fill="none" xmlns="http://www.w3.org/2000/svg">
<path d="M20.6055 26.4648H29.3945V29.3945H20.6055V26.4648Z" fill="#E78C3B"/>
<path d="M40.5643 29.3945H32.3242V30.8594C32.3242 31.6689 31.6689 32.3242 30.8594 32.3242H19.1406C18.3311 32.3242 17.6758 31.6689 17.6758 30.8594V29.3945H9.43565C7.54166 29.3945 5.86662 28.1872 5.26695 26.3905L0 10.5869V42.5781C0 45.0012 1.97144 46.9727 4.39453 46.9727H45.6055C48.0286 46.9727 50 45.0012 50 42.5781V10.5881L44.7327 26.3905C44.1334 28.1872 42.4583 29.3945 40.5643 29.3945Z" fill="#E78C3B"/>
<path d="M30.8593 3.02734H19.1405C16.7174 3.02734 14.746 4.99878 14.746 7.42188V8.88672H2.52026L8.04509 25.4635C8.24536 26.0628 8.8046 26.4648 9.43555 26.4648H17.6757V25C17.6757 24.1905 18.331 23.5352 19.1405 23.5352H30.8593C31.6687 23.5352 32.3241 24.1905 32.3241 25V26.4648H40.5642C41.1952 26.4648 41.7544 26.0628 41.9547 25.4635L47.4799 8.88672H35.2538V7.42188C35.2538 4.99878 33.2824 3.02734 30.8593 3.02734ZM17.6757 8.88672V7.42188C17.6757 6.61354 18.3322 5.95703 19.1405 5.95703H30.8593C31.6676 5.95703 32.3241 6.61354 32.3241 7.42188V8.88672H17.6757Z" fill="#E78C3B"/>
</svg>
