<svg width="68" height="68" viewBox="0 0 68 68" fill="none" xmlns="http://www.w3.org/2000/svg">
<path fillRule="evenodd" clipRule="evenodd" d="M34.0924 5.90192L35.7025 10.1425C35.7508 10.27 35.8636 10.3518 35.9997 10.3584L40.5302 10.5793C40.8383 10.5943 40.9645 10.9825 40.724 11.1758L37.1885 14.0174C37.0823 14.1028 37.0392 14.2354 37.075 14.3669L38.265 18.7438C38.3458 19.0415 38.0158 19.2814 37.7576 19.1124L33.9625 16.6281C33.8484 16.5535 33.7092 16.5535 33.5951 16.6281L29.8 19.1125C29.542 19.2814 29.2118 19.0416 29.2927 18.744L30.4827 14.3669C30.5184 14.2352 30.4755 14.1028 30.3691 14.0174L26.8337 11.1758C26.5931 10.9825 26.7193 10.5943 27.0274 10.5793L31.5579 10.3584C31.6942 10.3518 31.8068 10.27 31.8552 10.1425L33.4651 5.90192C33.5742 5.61517 33.9836 5.61517 34.0924 5.90192ZM55.1159 40.7952C61.058 40.7952 65.875 45.6122 65.875 51.5542C65.875 57.4962 61.058 62.3132 55.1159 62.3132C49.1739 62.3132 44.3571 57.4962 44.3571 51.5542C44.3571 45.6121 49.1739 40.7952 55.1159 40.7952ZM53.7028 52.5032L51.2988 50.0991C50.6758 49.4761 49.6651 49.4761 49.0419 50.0991C48.4189 50.7221 48.4189 51.7328 49.0419 52.3559L52.5778 55.8917C53.2008 56.5148 54.2115 56.5148 54.8345 55.8917C56.9658 53.7605 59.0728 51.6052 61.1942 49.4641C61.8129 48.8399 61.8109 47.8324 61.1873 47.2123C60.5636 46.5921 59.5535 46.5939 58.9342 47.2193L53.7028 52.5032ZM33.779 22.9844C38.1918 22.9844 41.7691 26.5617 41.7691 30.9745C41.7691 35.3874 38.1918 38.9647 33.779 38.9647C29.3661 38.9647 25.7888 35.3874 25.7888 30.9745C25.7888 26.5617 29.3661 22.9844 33.779 22.9844ZM19.6218 54.3956L42.5471 54.3955C42.3414 53.4812 42.2321 52.5305 42.2321 51.5541C42.2321 48.9058 43.0316 46.4444 44.4017 44.3972C41.5956 41.8473 37.8692 40.2928 33.779 40.2928C26.1847 40.2928 19.8421 45.6498 18.3226 52.791C18.1457 53.6218 18.7723 54.3956 19.6218 54.3956ZM65.3569 24.3146L62.4894 27.8293C62.4032 27.9348 62.3886 28.0734 62.451 28.1946L64.525 32.2287C64.6661 32.5031 64.393 32.8063 64.1055 32.6947L59.8767 31.0537C59.7496 31.0044 59.6134 31.0332 59.5174 31.13L56.3218 34.3492C56.1045 34.568 55.7317 34.4021 55.7489 34.094L56.0029 29.5652C56.0106 29.4291 55.9408 29.3085 55.8192 29.247L51.7701 27.2026C51.4948 27.0636 51.5374 26.6577 51.8356 26.579L56.2212 25.421C56.353 25.3862 56.4462 25.2827 56.467 25.1479L57.1602 20.6654C57.2073 20.3604 57.6066 20.2755 57.7737 20.5349L60.2302 24.3481C60.304 24.4627 60.4312 24.5194 60.5658 24.4975L65.0432 23.7716C65.3461 23.7224 65.5508 24.077 65.3569 24.3146ZM52.1915 10.9196C52.2407 10.6169 51.8861 10.4121 51.6483 10.606L48.1337 13.4734C48.0281 13.5596 47.8896 13.5742 47.7684 13.5118L43.7343 11.4378C43.4601 11.2968 43.1567 11.5698 43.2683 11.8575L44.9093 16.0861C44.9586 16.2132 44.9296 16.3493 44.8329 16.4455L41.6138 19.6412C41.3948 19.8585 41.5608 20.2313 41.8688 20.2141L46.3976 19.9601C46.5337 19.9524 46.6543 20.0221 46.7158 20.1438L48.7603 24.1929C48.8994 24.4683 49.3053 24.4255 49.384 24.1274L50.542 19.7418C50.5768 19.61 50.6803 19.5168 50.8151 19.4959L55.2976 18.8028C55.6026 18.7556 55.6874 18.3564 55.4281 18.1893L51.615 15.7328C51.5004 15.659 51.4438 15.5318 51.4656 15.3972L52.1915 10.9196ZM2.51436 23.7714L6.99187 24.4974C7.12641 24.5192 7.25364 24.4626 7.32748 24.348L9.78398 20.5349C9.95106 20.2755 10.3503 20.3604 10.3974 20.6654L11.0906 25.148C11.1114 25.2827 11.2045 25.3863 11.3364 25.4211L15.722 26.5791C16.0203 26.6579 16.063 27.0637 15.7876 27.2028L11.7386 29.2473C11.6169 29.3088 11.5473 29.4294 11.5549 29.5655L11.8088 34.0943C11.8261 34.4023 11.4533 34.5683 11.236 34.3494L8.04016 31.1299C7.94413 31.0332 7.80787 31.0043 7.68077 31.0535L3.45215 32.6946C3.16461 32.8061 2.89141 32.5029 3.03259 32.2285L5.10659 28.1945C5.16902 28.0732 5.15441 27.9347 5.06821 27.8291L2.20079 24.3145C2.00688 24.0769 2.21168 23.7223 2.51436 23.7714ZM15.9093 10.606C15.6717 10.4121 15.3171 10.6169 15.3662 10.9196L16.0922 15.3969C16.114 15.5315 16.0574 15.6587 15.9428 15.7326L12.1296 18.1891C11.8702 18.3561 11.9551 18.7554 12.26 18.8025L16.7427 19.4957C16.8774 19.5165 16.9808 19.6096 17.0158 19.7415L18.1737 24.1271C18.2525 24.4254 18.6584 24.468 18.7974 24.1926L20.8418 20.1435C20.9033 20.0219 21.0239 19.9523 21.16 19.9599L25.6888 20.2138C25.9968 20.2311 26.1628 19.8583 25.9438 19.6408L22.7247 16.4452C22.6279 16.3492 22.5991 16.2129 22.6483 16.0858L24.2894 11.8571C24.4009 11.5696 24.0977 11.2964 23.8233 11.4375L19.7894 13.5115C19.6682 13.5738 19.5296 13.5594 19.424 13.4732L15.9093 10.606Z" fill="#E78C3B"/>
</svg>
