<svg width="25" height="24" viewBox="0 0 25 24" fill="none" xmlns="http://www.w3.org/2000/svg">
<g clip-path="url(#clip0_349_150)">
<path d="M23.18 1.32019C22.3001 0.440119 21.24 0 20.0006 0H5.00046C3.76099 0 2.70092 0.440119 1.82068 1.32019C0.940607 2.20043 0.500488 3.26045 0.500488 4.49997V19.4999C0.500488 20.7393 0.940607 21.7995 1.82068 22.6797C2.70092 23.5599 3.76099 24.0001 5.00046 24.0001H20.0004C21.2399 24.0001 22.2999 23.5599 23.1798 22.6797C24.06 21.7995 24.5002 20.7394 24.5002 19.4999V4.49997C24.5001 3.26045 24.06 2.20027 23.18 1.32019ZM18.8598 9.23445C18.8703 9.3282 18.8756 9.46858 18.8756 9.6564C18.8756 10.5314 18.7479 11.4091 18.4928 12.289C18.2377 13.1694 17.847 14.0132 17.3207 14.8204C16.795 15.6276 16.1674 16.3413 15.4383 16.9611C14.7091 17.5806 13.8342 18.0756 12.8131 18.4451C11.7926 18.8152 10.6986 19.0002 9.53207 19.0002C7.71971 19.0002 6.04264 18.5103 4.50091 17.5315C4.7509 17.5626 5.01146 17.5783 5.28214 17.5783C6.79262 17.5783 8.152 17.1096 9.36039 16.1718C8.65216 16.1617 8.01923 15.9431 7.462 15.5156C6.9046 15.0885 6.51669 14.547 6.29789 13.8907C6.56862 13.9323 6.77172 13.9529 6.90711 13.9529C7.13626 13.9529 7.40196 13.9113 7.70395 13.8282C6.94356 13.6821 6.30303 13.3049 5.78219 12.6955C5.26124 12.086 5.00084 11.3908 5.00084 10.6096V10.5783C5.55277 10.8386 6.07361 10.974 6.56326 10.9845C5.61532 10.349 5.14138 9.43766 5.14138 8.25018C5.14138 7.66678 5.29232 7.11475 5.59442 6.5939C6.41725 7.60439 7.41745 8.41157 8.59436 9.01571C9.77139 9.61979 11.0319 9.9585 12.3756 10.0313C12.3236 9.83345 12.2975 9.58334 12.2975 9.28135C12.2975 8.37496 12.6178 7.60166 13.2585 6.96096C13.899 6.32032 14.6725 5.99989 15.5786 5.99989C16.5372 5.99989 17.3342 6.34374 17.9696 7.03129C18.6884 6.89589 19.3866 6.63013 20.0635 6.23445C19.8031 7.03632 19.3184 7.64577 18.6104 8.06246C19.2873 7.96855 19.9173 7.79156 20.5006 7.53117C20.0631 8.1978 19.5161 8.76549 18.8598 9.23445Z" fill="#A6B2C0"/>
</g>
<defs>
<clipPath id="clip0_349_150">
<rect width="24" height="24" fill="white" transform="translate(0.5)"/>
</clipPath>
</defs>
</svg>
