<svg width="55" height="55" viewBox="0 0 55 55" fill="none" xmlns="http://www.w3.org/2000/svg">
<g clip-path="url(#clip0_77_979)">
<path d="M27.5 25.8888C23.0578 25.8888 19.4434 29.5032 19.4434 33.9454C19.4434 38.3876 23.0578 42.0021 27.5 42.0021C31.9422 42.0021 35.5566 38.3876 35.5566 33.9454C35.5566 29.5031 31.9422 25.8888 27.5 25.8888Z" fill="#E78C3B"/>
<path d="M35.3688 42.0021C33.3344 43.9893 30.5614 45.2247 27.5 45.2247C24.4386 45.2247 21.6656 43.9893 19.6312 42.0021C17.5331 44.0517 16.2207 46.9014 16.2207 50.0587V53.3888C16.2207 54.2794 16.9414 55.0001 17.832 55.0001H37.168C38.0586 55.0001 38.7793 54.2794 38.7793 53.3888V50.0587C38.7793 46.9013 37.4669 44.0517 35.3688 42.0021Z" fill="#E78C3B"/>
<path d="M11.3867 25.8888C6.9445 25.8888 3.33008 29.5032 3.33008 33.9454C3.33008 38.3876 6.9445 42.0021 11.3867 42.0021C15.8289 42.0021 19.4434 38.3876 19.4434 33.9454C19.4434 29.5031 15.8289 25.8888 11.3867 25.8888Z" fill="#E78C3B"/>
<path d="M12.998 50.0587C12.998 48.2318 13.3616 46.4967 13.9884 44.8922C13.1495 45.092 12.2858 45.2247 11.3867 45.2247C8.3253 45.2247 5.44489 43.9893 3.41054 42.0021C1.31237 44.0516 0 46.9013 0 50.0587V53.3888C0 54.2794 0.720693 55.0001 1.61133 55.0001H13.2949C13.1143 54.4936 12.998 53.9564 12.998 53.3888V50.0587Z" fill="#E78C3B"/>
<path d="M43.6133 25.8888C39.1711 25.8888 35.5566 29.5032 35.5566 33.9454C35.5566 38.3876 39.1711 42.0021 43.6133 42.0021C48.0555 42.0021 51.6699 38.3876 51.6699 33.9454C51.6699 29.5031 48.0555 25.8888 43.6133 25.8888Z" fill="#E78C3B"/>
<path d="M37.7313 7.51116L31.5457 6.61107L28.7792 0.826189C28.2379 -0.275315 26.4315 -0.275315 25.8901 0.826189L23.1238 6.61107L16.9381 7.51116C15.6207 7.70237 15.0911 9.32938 16.0444 10.2586L20.5212 14.6221L19.4637 20.7826C19.2375 22.0985 20.6258 23.1038 21.8005 22.4805L27.3347 19.5726L32.869 22.4805C34.0385 23.1007 35.4329 22.1046 35.2057 20.7826L34.1483 14.6221L38.6251 10.2586C39.5782 9.32938 39.0488 7.70237 37.7313 7.51116Z" fill="#E78C3B"/>
<path d="M51.5896 42.0021C49.5552 43.9893 46.6748 45.2247 43.6134 45.2247C42.7142 45.2247 41.8506 45.092 41.0117 44.8922C41.6385 46.4967 42.002 48.2318 42.002 50.0587V53.3888C42.002 53.9564 41.8858 54.4936 41.7052 55.0001H53.3888C54.2794 55.0001 55.0001 54.2794 55.0001 53.3888V50.0587C55.0001 46.9013 53.6877 44.0517 51.5896 42.0021Z" fill="#E78C3B"/>
</g>
<defs>
<clipPath id="clip0_77_979">
<rect width="55" height="55" fill="white"/>
</clipPath>
</defs>
</svg>
